<svg width="30" height="30" viewBox="0 0 30 30" fill="none" xmlns="http://www.w3.org/2000/svg">
<path d="M15 17.9805C14.8008 17.9805 14.625 17.9043 14.4727 17.7461L10.0078 13.1816C9.87891 13.0527 9.80859 12.8887 9.80859 12.7012C9.80859 12.3203 10.1074 12.0215 10.4883 12.0215C10.6758 12.0215 10.8457 12.0977 10.9805 12.2266L15 16.3457L19.0195 12.2266C19.1484 12.0977 19.3242 12.0215 19.5117 12.0215C19.8867 12.0215 20.1855 12.3203 20.1855 12.7012C20.1855 12.8945 20.1211 13.0527 19.9922 13.1816L15.5273 17.7461C15.3809 17.9043 15.1992 17.9805 15 17.9805Z" fill="#999999"/>
</svg>
