<svg width="8" height="14" viewBox="0 0 8 14" fill="none" xmlns="http://www.w3.org/2000/svg">
    <path
        d="M0.17334 7.21191C0.180664 6.91162 0.283203 6.6626 0.524902 6.42822L6.16455 0.913086C6.34766 0.722656 6.57471 0.634766 6.85303 0.634766C7.40234 0.634766 7.8418 1.06689 7.8418 1.61621C7.8418 1.88721 7.73193 2.13623 7.53418 2.33398L2.52441 7.20459L7.53418 12.0898C7.73193 12.2876 7.8418 12.5293 7.8418 12.8076C7.8418 13.3569 7.40234 13.7964 6.85303 13.7964C6.58203 13.7964 6.34766 13.7012 6.16455 13.5107L0.524902 7.99561C0.283203 7.76123 0.17334 7.51221 0.17334 7.21191Z"
        fill="#222222" />
</svg>