<svg width="30" height="30" viewBox="0 0 30 30" fill="none" xmlns="http://www.w3.org/2000/svg">
<path d="M19.8193 15.2119C19.8193 15.5122 19.7168 15.7612 19.4751 15.9956L13.8354 21.5107C13.645 21.7012 13.418 21.7964 13.147 21.7964C12.5977 21.7964 12.1509 21.3569 12.1509 20.8076C12.1509 20.5293 12.2681 20.2876 12.4658 20.0898L17.4756 15.2046L12.4658 10.334C12.2681 10.1362 12.1509 9.88721 12.1509 9.61621C12.1509 9.06689 12.5977 8.63477 13.147 8.63477C13.418 8.63477 13.645 8.72266 13.8354 8.91309L19.4751 14.4282C19.7095 14.6626 19.8193 14.9116 19.8193 15.2119Z" fill="#0099FF"/>
</svg>
