<svg width="14" height="13" viewBox="0 0 14 13" fill="none" xmlns="http://www.w3.org/2000/svg">
<path d="M1.30176 12.4175C0.935547 12.0586 0.950195 11.436 1.29443 11.0918L5.65967 6.71924L1.29443 2.354C0.950195 2.00977 0.942871 1.39453 1.30176 1.02832C1.66064 0.662109 2.2832 0.676758 2.63477 1.021L7 5.38623L11.3579 1.021C11.7168 0.662109 12.3247 0.669434 12.6909 1.02832C13.0571 1.39453 13.0571 2.00244 12.6982 2.36133L8.34033 6.71924L12.6982 11.0845C13.0571 11.4434 13.0498 12.0513 12.6909 12.4175C12.332 12.7837 11.7168 12.7837 11.3579 12.4248L7 8.05957L2.63477 12.4248C2.2832 12.769 1.66797 12.7837 1.30176 12.4175Z" fill="#222222"/>
</svg>
