<svg width="24" height="24" viewBox="0 0 24 24" fill="none" xmlns="http://www.w3.org/2000/svg">
<mask id="mask0_0_925" style="mask-type:alpha" maskUnits="userSpaceOnUse" x="2" y="2" width="20" height="20">
<path fill-rule="evenodd" clip-rule="evenodd" d="M22 10.4305C22 9.24229 21.0334 8.27565 19.845 8.27565H19.1777L17.1292 3.33012C16.6745 2.23256 15.4116 1.70949 14.3137 2.16404C13.7819 2.38423 13.3676 2.79851 13.1475 3.33027C12.9271 3.86204 12.9273 4.44783 13.1476 4.9796L14.5128 8.27565H9.48734L10.8525 4.9796C11.3073 3.88173 10.784 2.61876 9.68631 2.16404C8.58844 1.70933 7.32547 2.23256 6.87076 3.33027L4.82227 8.27565H4.155C2.9668 8.27565 2 9.24229 2 10.4305C2 11.4389 2.69641 12.2875 3.63345 12.5214L4.62207 19.9358C4.69592 20.4903 4.98096 21.0096 5.42422 21.3976C5.86765 21.7858 6.41986 21.9996 6.97925 21.9996H17.0209C17.5803 21.9996 18.1327 21.7858 18.5759 21.3976C19.0193 21.0096 19.3042 20.4903 19.3781 19.9358L20.3667 12.5213C21.3037 12.2875 22 11.4389 22 10.4305ZM14.2302 4.53114C14.1297 4.28853 14.1297 4.02119 14.2301 3.77858C14.3306 3.53611 14.5195 3.34721 14.7621 3.24666C15.2629 3.03929 15.8393 3.27794 16.0466 3.77873L17.9093 8.27565H15.7813L14.2302 4.53114ZM9.23785 3.24666C8.73706 3.03929 8.16089 3.27794 7.95337 3.77873L6.09073 8.27565H8.21887L9.76978 4.53114C9.97729 4.03035 9.73865 3.45402 9.23785 3.24666ZM18.2166 19.7809C18.1409 20.3484 17.5934 20.8277 17.0209 20.8277H6.97925C6.40689 20.8277 5.85925 20.3484 5.78372 19.7809L4.82425 12.5855H19.1759L18.2166 19.7809ZM4.155 11.4136H19.845C20.3871 11.4136 20.8281 10.9726 20.8281 10.4305C20.8281 9.8885 20.387 9.44752 19.845 9.44752H18.7896L18.7863 9.44767L18.7822 9.44752H15.3888H15.383H8.61621H8.61209H5.21777L5.21365 9.44767L5.21045 9.44752H4.155C3.61285 9.44752 3.17188 9.8885 3.17188 10.4305C3.17188 10.9726 3.61285 11.4136 4.155 11.4136Z" fill="black"/>
<path d="M12.0002 14.5515C11.6765 14.5515 11.4141 14.814 11.4141 15.1375V18.2756C11.4141 18.5992 11.6765 18.8615 12.0002 18.8615C12.3236 18.8615 12.5861 18.5992 12.5861 18.2756V15.1375C12.5861 14.814 12.3236 14.5515 12.0002 14.5515Z" fill="black"/>
<path d="M15.1381 14.5515C14.8145 14.5515 14.5522 14.814 14.5522 15.1375V18.2756C14.5522 18.5992 14.8145 18.8615 15.1381 18.8615C15.4618 18.8615 15.7241 18.5992 15.7241 18.2756V15.1375C15.7241 14.814 15.4618 14.5515 15.1381 14.5515Z" fill="black"/>
<path d="M8.86206 14.5515C8.53842 14.5515 8.27612 14.814 8.27612 15.1375V18.2756C8.27612 18.5992 8.53842 18.8615 8.86206 18.8615C9.1857 18.8615 9.448 18.5992 9.448 18.2756V15.1375C9.448 14.814 9.1857 14.5515 8.86206 14.5515Z" fill="black"/>
</mask>
<g mask="url(#mask0_0_925)">
<rect x="-4" y="-5" width="34" height="34" fill="#08C25E"/>
</g>
</svg>
