<svg width="21" height="20" viewBox="0 0 24 24" fill="none" xmlns="http://www.w3.org/2000/svg">
<path d="M18.1,22.5c-1.5,0-2.6-1.2-2.6-2.6c0-0.3,0-0.6,0.2-0.9l0-0.1H9.5l0,0.1c0.1,0.3,0.2,0.6,0.2,0.9 c0,1.4-1.2,2.6-2.6,2.6c-1.5,0-2.6-1.2-2.6-2.6c0-0.3,0-0.6,0.2-0.9l0-0.1H4.5l-0.1,0c-1.3-0.1-2.3-1.3-2.3-2.6s1-2.4,2.3-2.6l0.1,0 V3.1H0.9V1.5h5.2V4l16.3,1.2c0.2,0,0.5,0.1,0.6,0.3c0.1,0.2,0.2,0.4,0.1,0.7l-2.4,8.5c-0.1,0.3-0.4,0.6-0.8,0.6H4.7 c-0.6,0-1,0.5-1,1s0.5,1,1,1h13.6l0.1,0c1.3,0.1,2.3,1.3,2.3,2.6C20.7,21.3,19.5,22.5,18.1,22.5z M18.1,18.9c-0.6,0-1,0.5-1,1 s0.5,1,1,1s1-0.5,1-1S18.6,18.9,18.1,18.9z M7.1,18.9c-0.6,0-1,0.5-1,1s0.5,1,1,1s1-0.5,1-1S7.7,18.9,7.1,18.9z M6.1,13.6h13.2l2-7 L6.1,5.6V13.6z" fill="#222222"/>
</svg>
