<svg width="15" height="15" viewBox="0 0 15 15" fill="none" xmlns="http://www.w3.org/2000/svg">
<path d="M7.83337 14.7039C4.02576 14.7039 0.860718 11.5389 0.860718 7.73129C0.860718 3.91683 4.01892 0.758629 7.82654 0.758629C11.641 0.758629 14.806 3.91683 14.806 7.73129C14.806 11.5389 11.6478 14.7039 7.83337 14.7039ZM5.5365 10.6024C5.69373 10.6024 5.83728 10.5477 5.94666 10.4383L7.83337 8.53793L9.72693 10.4383C9.82947 10.5477 9.97302 10.6024 10.1302 10.6024C10.4515 10.6024 10.7045 10.3494 10.7045 10.035C10.7045 9.87777 10.6498 9.73421 10.5336 9.63168L8.64001 7.73812L10.5404 5.83773C10.6635 5.71468 10.7113 5.59164 10.7113 5.43441C10.7113 5.11996 10.4584 4.87386 10.1439 4.87386C9.99353 4.87386 9.87048 4.92171 9.75427 5.03793L7.83337 6.94515L5.92615 5.04476C5.81677 4.94222 5.69373 4.88754 5.5365 4.88754C5.22205 4.88754 4.97595 5.12679 4.97595 5.44808C4.97595 5.59847 5.03064 5.73519 5.14001 5.84457L7.03357 7.73812L5.14001 9.63851C5.03064 9.74105 4.97595 9.88461 4.97595 10.035C4.97595 10.3494 5.22205 10.6024 5.5365 10.6024Z" fill="#999999"/>
</svg>
