<svg width="30" height="30" viewBox="0 0 30 30" fill="none" xmlns="http://www.w3.org/2000/svg">
<rect width="30" height="30" fill="none"/>
<g clip-path="url(#clip0_893_3542)">
<rect width="390" height="844" transform="translate(-330 -545)" fill="none"/>
<path d="M24.389 12.6346C23.097 10.5304 20.1581 7 15 7C9.84191 7 6.903 10.5304 5.61098 12.6346C5.21157 13.2806 5 14.0251 5 14.7846C5 15.5441 5.21157 16.2886 5.61098 16.9347C6.903 19.0389 9.84191 22.5692 15 22.5692C20.1581 22.5692 23.097 19.0389 24.389 16.9347C24.7884 16.2886 25 15.5441 25 14.7846C25 14.0251 24.7884 13.2806 24.389 12.6346ZM22.9687 16.0625C21.8591 17.8668 19.3476 20.9032 15 20.9032C10.6524 20.9032 8.14087 17.8668 7.03129 16.0625C6.79399 15.6785 6.6683 15.236 6.6683 14.7846C6.6683 14.3332 6.79399 13.8907 7.03129 13.5068C8.14087 11.7024 10.6524 8.66605 15 8.66605C19.3476 8.66605 21.8591 11.6991 22.9687 13.5068C23.206 13.8907 23.3317 14.3332 23.3317 14.7846C23.3317 15.236 23.206 15.6785 22.9687 16.0625Z" fill="#999999"/>
<path d="M15 10.6194C14.1762 10.6194 13.3709 10.8637 12.6859 11.3214C12.001 11.7791 11.4671 12.4296 11.1519 13.1906C10.8366 13.9517 10.7542 14.7892 10.9149 15.5971C11.0756 16.4051 11.4723 17.1473 12.0548 17.7298C12.6373 18.3123 13.3794 18.709 14.1874 18.8697C14.9953 19.0304 15.8328 18.9479 16.5939 18.6326C17.355 18.3174 18.0055 17.7835 18.4631 17.0986C18.9208 16.4136 19.1651 15.6084 19.1651 14.7846C19.1638 13.6803 18.7245 12.6217 17.9437 11.8408C17.1629 11.06 16.1042 10.6208 15 10.6194ZM15 17.2836C14.5057 17.2836 14.0225 17.1371 13.6116 16.8625C13.2006 16.5879 12.8803 16.1976 12.6911 15.7409C12.502 15.2843 12.4525 14.7818 12.5489 14.297C12.6453 13.8123 12.8833 13.367 13.2329 13.0175C13.5824 12.668 14.0276 12.4299 14.5124 12.3335C14.9972 12.2371 15.4997 12.2866 15.9563 12.4757C16.413 12.6649 16.8033 12.9852 17.0779 13.3962C17.3525 13.8071 17.499 14.2903 17.499 14.7846C17.499 15.4474 17.2357 16.083 16.7671 16.5517C16.2984 17.0203 15.6628 17.2836 15 17.2836Z" fill="#999999"/>
<rect x="-309.5" y="-9.5" width="349" height="49" rx="5.5" stroke="#DDDDDD"/>
</g>
<defs>
<clipPath id="clip0_893_3542">
<rect width="390" height="844" fill="none" transform="translate(-330 -545)"/>
</clipPath>
</defs>
</svg>
