<svg xmlns="http://www.w3.org/2000/svg" width="30" height="30" viewBox="0 0 30 30" fill="none">
<path fill-rule="evenodd" clip-rule="evenodd" d="M7.59046 10.1204C6.71371 10.9917 6.062 11.9 5.61098 12.6346C5.21157 13.2806 5 14.0251 5 14.7846C5 15.5441 5.21157 16.2886 5.61098 16.9347C6.903 19.0389 9.84191 22.5692 15 22.5692C16.5974 22.5692 17.982 22.2306 19.1707 21.7007L17.8845 20.4145C17.03 20.719 16.0707 20.9032 15 20.9032C10.6524 20.9032 8.14087 17.8668 7.03129 16.0625C6.79399 15.6785 6.6683 15.236 6.6683 14.7846C6.6683 14.3332 6.79399 13.8907 7.03129 13.5068C7.42673 12.8637 8.00023 12.0642 8.77145 11.3014L7.59046 10.1204ZM21.3116 18.1847C22.0411 17.4473 22.5876 16.6822 22.9687 16.0625C23.206 15.6785 23.3317 15.236 23.3317 14.7846C23.3317 14.3332 23.206 13.8907 22.9687 13.5068C21.8591 11.6991 19.3476 8.66605 15 8.66605C13.9805 8.66605 13.062 8.83302 12.2388 9.11191L10.9448 7.81792C12.1075 7.31712 13.4541 7 15 7C20.1581 7 23.097 10.5304 24.389 12.6346C24.7884 13.2806 25 14.0251 25 14.7846C25 15.5441 24.7884 16.2886 24.389 16.9347C23.9523 17.6458 23.3275 18.5199 22.4925 19.3656L21.3116 18.1847Z" fill="#CCCCCC"/>
<path fill-rule="evenodd" clip-rule="evenodd" d="M11.0218 13.5502C10.8168 14.2111 10.779 14.9146 10.9148 15.5972C11.0755 16.4051 11.4722 17.1473 12.0547 17.7298C12.6372 18.3123 13.3793 18.709 14.1873 18.8697C14.8698 19.0054 15.5734 18.9677 16.2342 18.7626L14.7419 17.2703C14.3388 17.2285 13.9505 17.0891 13.6114 16.8625C13.2005 16.5879 12.8801 16.1976 12.691 15.7409C12.5981 15.5167 12.5389 15.2814 12.5141 15.0425L11.0218 13.5502ZM17.4569 14.3285C17.3954 13.9968 17.267 13.6793 17.0777 13.3962C16.8031 12.9852 16.4128 12.6649 15.9562 12.4757C15.7943 12.4087 15.6265 12.3592 15.4559 12.3275L13.8967 10.7682C14.2542 10.67 14.6251 10.6195 14.9998 10.6195C16.1041 10.6208 17.1627 11.06 17.9436 11.8409C18.7244 12.6217 19.1636 13.6803 19.165 14.7846C19.165 15.1593 19.1144 15.5303 19.0162 15.8878L17.4569 14.3285Z" fill="#CCCCCC"/>
<rect x="6" y="7.06066" width="1.8" height="24.6326" rx="0.9" transform="rotate(-45 6 7.06066)" fill="#CCCCCC"/>
</svg>