<svg width="30" height="31" viewBox="0 0 30 31" fill="none" xmlns="http://www.w3.org/2000/svg">
<path d="M5.83333 9.45855H8.11333C8.2922 10.1167 8.68264 10.6976 9.22444 11.1118C9.76623 11.526 10.4293 11.7504 11.1112 11.7504C11.7932 11.7504 12.4563 11.526 12.9981 11.1118C13.5399 10.6976 13.9303 10.1167 14.1092 9.45855H24.1667C24.3877 9.45855 24.5996 9.37075 24.7559 9.21447C24.9122 9.05819 25 8.84623 25 8.62521C25 8.4042 24.9122 8.19224 24.7559 8.03596C24.5996 7.87968 24.3877 7.79188 24.1667 7.79188H14.1092C13.9303 7.13377 13.5399 6.5528 12.9981 6.1386C12.4563 5.72441 11.7932 5.5 11.1112 5.5C10.4293 5.5 9.76623 5.72441 9.22444 6.1386C8.68264 6.5528 8.2922 7.13377 8.11333 7.79188H5.83333C5.61232 7.79188 5.40036 7.87968 5.24408 8.03596C5.0878 8.19224 5 8.4042 5 8.62521C5 8.84623 5.0878 9.05819 5.24408 9.21447C5.40036 9.37075 5.61232 9.45855 5.83333 9.45855ZM11.1108 7.16688C11.3993 7.16688 11.6812 7.25241 11.921 7.41265C12.1609 7.5729 12.3478 7.80066 12.4582 8.06713C12.5685 8.33361 12.5974 8.62683 12.5411 8.90972C12.4849 9.19261 12.346 9.45246 12.142 9.65641C11.9381 9.86036 11.6782 9.99925 11.3953 10.0555C11.1125 10.1118 10.8192 10.0829 10.5528 9.97254C10.2863 9.86216 10.0585 9.67524 9.89827 9.43542C9.73803 9.1956 9.6525 8.91364 9.6525 8.62521C9.65294 8.23857 9.80673 7.8679 10.0801 7.5945C10.3535 7.32111 10.7242 7.16732 11.1108 7.16688Z" fill="#222222"/>
<path d="M24.1667 14.6669H21.8867C21.7081 14.0086 21.3178 13.4274 20.7761 13.0131C20.2343 12.5987 19.5712 12.3742 18.8892 12.3742C18.2071 12.3742 17.544 12.5987 17.0023 13.0131C16.4605 13.4274 16.0702 14.0086 15.8917 14.6669H5.83333C5.61232 14.6669 5.40036 14.7547 5.24408 14.9109C5.0878 15.0672 5 15.2792 5 15.5002C5 15.7212 5.0878 15.9332 5.24408 16.0895C5.40036 16.2457 5.61232 16.3335 5.83333 16.3335H15.8917C16.0702 16.9918 16.4605 17.573 17.0023 17.9873C17.544 18.4017 18.2071 18.6262 18.8892 18.6262C19.5712 18.6262 20.2343 18.4017 20.7761 17.9873C21.3178 17.573 21.7081 16.9918 21.8867 16.3335H24.1667C24.3877 16.3335 24.5996 16.2457 24.7559 16.0895C24.9122 15.9332 25 15.7212 25 15.5002C25 15.2792 24.9122 15.0672 24.7559 14.9109C24.5996 14.7547 24.3877 14.6669 24.1667 14.6669ZM18.8892 16.9585C18.6007 16.9585 18.3188 16.873 18.079 16.7128C17.8391 16.5525 17.6522 16.3248 17.5418 16.0583C17.4315 15.7918 17.4026 15.4986 17.4589 15.2157C17.5151 14.9328 17.654 14.673 17.858 14.469C18.0619 14.2651 18.3218 14.1262 18.6047 14.0699C18.8875 14.0136 19.1808 14.0425 19.4472 14.1529C19.7137 14.2633 19.9415 14.4502 20.1017 14.69C20.262 14.9298 20.3475 15.2118 20.3475 15.5002C20.3471 15.8868 20.1933 16.2575 19.9199 16.5309C19.6465 16.8043 19.2758 16.9581 18.8892 16.9585Z" fill="#222222"/>
<path d="M24.1667 21.5419H14.1092C13.9303 20.8838 13.5399 20.3028 12.9981 19.8886C12.4563 19.4744 11.7932 19.25 11.1112 19.25C10.4293 19.25 9.76623 19.4744 9.22444 19.8886C8.68264 20.3028 8.2922 20.8838 8.11333 21.5419H5.83333C5.61232 21.5419 5.40036 21.6297 5.24408 21.786C5.0878 21.9422 5 22.1542 5 22.3752C5 22.5962 5.0878 22.8082 5.24408 22.9645C5.40036 23.1207 5.61232 23.2085 5.83333 23.2085H8.11333C8.2922 23.8667 8.68264 24.4476 9.22444 24.8618C9.76623 25.276 10.4293 25.5004 11.1112 25.5004C11.7932 25.5004 12.4563 25.276 12.9981 24.8618C13.5399 24.4476 13.9303 23.8667 14.1092 23.2085H24.1667C24.3877 23.2085 24.5996 23.1207 24.7559 22.9645C24.9122 22.8082 25 22.5962 25 22.3752C25 22.1542 24.9122 21.9422 24.7559 21.786C24.5996 21.6297 24.3877 21.5419 24.1667 21.5419ZM11.1108 23.8335C10.8224 23.8335 10.5404 23.748 10.3006 23.5878C10.0608 23.4275 9.87389 23.1998 9.76351 22.9333C9.65313 22.6668 9.62425 22.3736 9.68052 22.0907C9.73679 21.8078 9.87568 21.548 10.0796 21.344C10.2836 21.1401 10.5434 21.0012 10.8263 20.9449C11.1092 20.8886 11.4024 20.9175 11.6689 21.0279C11.9354 21.1383 12.1631 21.3252 12.3234 21.565C12.4836 21.8048 12.5692 22.0868 12.5692 22.3752C12.5685 22.7618 12.4146 23.1323 12.1413 23.4057C11.868 23.679 11.4974 23.8329 11.1108 23.8335Z" fill="#222222"/>
</svg>
