<svg width="22" height="17" viewBox="0 0 22 17" fill="none" xmlns="http://www.w3.org/2000/svg">
<path d="M0.238721 12.3726C-0.0728011 12.6749 -0.080474 13.1722 0.221841 13.4837L3.24345 16.5981C3.24364 16.5983 3.24393 16.5984 3.24412 16.5986C3.38694 16.7464 3.58538 16.8398 3.80741 16.8398C4.02945 16.8398 4.22789 16.7464 4.3707 16.5986C4.3709 16.5984 4.37118 16.5983 4.37138 16.5981L7.39375 13.4837C7.69607 13.1722 7.6884 12.6749 7.37687 12.3726C7.06535 12.0703 6.56814 12.078 6.26583 12.3895L4.59312 14.1134V1.55525C4.59312 1.12095 4.2417 0.769531 3.80741 0.769531C3.37312 0.769531 3.0217 1.12095 3.0217 1.55525V14.1132L1.34977 12.3895C1.04745 12.078 0.550243 12.0703 0.238721 12.3726Z" fill="#222222"/>
<path d="M19.5483 6.38693C19.5483 5.95263 19.1969 5.60121 18.7626 5.60121H10.2364C9.80211 5.60121 9.45068 5.95263 9.45068 6.38693C9.45068 6.82122 9.80211 7.17264 10.2364 7.17264H18.7626C19.1969 7.17264 19.5483 6.82122 19.5483 6.38693Z" fill="#222222"/>
<path d="M17.0968 11.2194C17.0968 10.7851 16.7454 10.4337 16.3111 10.4337H10.2364C9.80211 10.4337 9.45068 10.7851 9.45068 11.2194C9.45068 11.6537 9.80211 12.0051 10.2364 12.0051H16.3111C16.7454 12.0051 17.0968 11.6537 17.0968 11.2194Z" fill="#222222"/>
<path d="M10.2364 15.2684C9.80211 15.2684 9.45068 15.6198 9.45068 16.0541C9.45068 16.4884 9.80211 16.8398 10.2364 16.8398H13.8596C14.2939 16.8398 14.6453 16.4884 14.6453 16.0541C14.6453 15.6198 14.2939 15.2684 13.8596 15.2684H10.2364Z" fill="#222222"/>
<path d="M21.2141 0.769531H10.2364C9.80211 0.769531 9.45068 1.12095 9.45068 1.55525C9.45068 1.98954 9.80211 2.34096 10.2364 2.34096H21.2141C21.6484 2.34096 21.9998 1.98954 21.9998 1.55525C21.9998 1.12095 21.6484 0.769531 21.2141 0.769531Z" fill="#222222"/>
</svg>
