<svg width="21" height="20" viewBox="0 0 21 20" fill="none" xmlns="http://www.w3.org/2000/svg">
<path d="M19.279 7.54421L12.9544 1.21875C12.1717 0.438275 11.1114 0 10.006 0C8.90061 0 7.84033 0.438275 7.05756 1.21875L0.732941 7.54421C0.499823 7.77583 0.314999 8.05143 0.189184 8.35501C0.0633697 8.6586 -0.000933518 8.98414 2.44287e-06 9.31277V17.4985C2.44287e-06 18.1619 0.263552 18.7982 0.732674 19.2673C1.2018 19.7365 1.83806 20 2.5015 20H17.5105C18.1739 20 18.8102 19.7365 19.2793 19.2673C19.7484 18.7982 20.012 18.1619 20.012 17.4985V9.31277C20.0129 8.98414 19.9486 8.6586 19.8228 8.35501C19.697 8.05143 19.5122 7.77583 19.279 7.54421ZM12.5075 18.3323H7.5045V15.052C7.5045 14.3886 7.76805 13.7523 8.23717 13.2832C8.70629 12.8141 9.34256 12.5505 10.006 12.5505C10.6694 12.5505 11.3057 12.8141 11.7748 13.2832C12.2439 13.7523 12.5075 14.3886 12.5075 15.052V18.3323ZM18.3443 17.4985C18.3443 17.7196 18.2565 17.9317 18.1001 18.0881C17.9437 18.2445 17.7316 18.3323 17.5105 18.3323H14.1752V15.052C14.1752 13.9463 13.7359 12.8859 12.954 12.104C12.1722 11.3221 11.1117 10.8829 10.006 10.8829C8.90026 10.8829 7.83982 11.3221 7.05795 12.104C6.27608 12.8859 5.83683 13.9463 5.83683 15.052V18.3323H2.5015C2.28035 18.3323 2.06827 18.2445 1.91189 18.0881C1.75552 17.9317 1.66767 17.7196 1.66767 17.4985V9.31277C1.66844 9.09178 1.75621 8.87999 1.91198 8.72325L8.2366 2.40029C8.70663 1.93245 9.34282 1.66981 10.006 1.66981C10.6692 1.66981 11.3054 1.93245 11.7754 2.40029L18.1 8.72575C18.2552 8.88188 18.3429 9.09265 18.3443 9.31277V17.4985Z" fill="#222222"/>
</svg>
