<svg width="22" height="17" viewBox="0 0 22 17" fill="none" xmlns="http://www.w3.org/2000/svg">
    <path
        d="M2.15234 4.66211L2.96289 4.06641L3.76367 4.66211C4.08594 4.90625 4.4668 4.65234 4.33984 4.28125L4.01758 3.29492L4.81836 2.69922C5.12109 2.47461 4.99414 2.05469 4.62305 2.05469H3.62695L3.29492 1.00977C3.1875 0.6875 2.73828 0.6875 2.64062 1.00977L2.30859 2.05469H1.29297C0.921875 2.05469 0.804688 2.47461 1.09766 2.69922L1.9082 3.29492L1.5957 4.28125C1.46875 4.65234 1.83008 4.89648 2.15234 4.66211ZM7.875 3.89062H20.1406C20.6582 3.89062 21.0684 3.48047 21.0684 2.96289C21.0684 2.44531 20.668 2.03516 20.1406 2.03516H7.875C7.35742 2.03516 6.95703 2.44531 6.95703 2.96289C6.95703 3.48047 7.35742 3.89062 7.875 3.89062ZM2.15234 10.6484L2.96289 10.0527L3.76367 10.6484C4.08594 10.8926 4.4668 10.6289 4.33984 10.2578L4.01758 9.28125L4.81836 8.68555C5.12109 8.46094 4.99414 8.04102 4.62305 8.04102H3.62695L3.29492 6.99609C3.1875 6.67383 2.73828 6.67383 2.64062 6.99609L2.30859 8.04102H1.29297C0.921875 8.04102 0.804688 8.46094 1.09766 8.68555L1.9082 9.28125L1.5957 10.2578C1.46875 10.6289 1.83008 10.8828 2.15234 10.6484ZM7.875 9.88672H20.1406C20.6582 9.88672 21.0684 9.47656 21.0684 8.95898C21.0684 8.44141 20.668 8.03125 20.1406 8.03125H7.875C7.35742 8.03125 6.95703 8.44141 6.95703 8.95898C6.95703 9.47656 7.35742 9.88672 7.875 9.88672ZM2.15234 16.6543L2.96289 16.0586L3.76367 16.6543C4.08594 16.8984 4.4668 16.6348 4.33984 16.2637L4.01758 15.2871L4.81836 14.6914C5.12109 14.4668 4.99414 14.0469 4.62305 14.0469H3.62695L3.29492 13.002C3.1875 12.6797 2.73828 12.6797 2.64062 13.002L2.30859 14.0469H1.29297C0.921875 14.0469 0.804688 14.4668 1.09766 14.6914L1.9082 15.2871L1.5957 16.2637C1.46875 16.6348 1.83008 16.8887 2.15234 16.6543ZM7.875 15.8828H20.1406C20.6582 15.8828 21.0684 15.4727 21.0684 14.9551C21.0684 14.4375 20.668 14.0273 20.1406 14.0273H7.875C7.35742 14.0273 6.95703 14.4375 6.95703 14.9551C6.95703 15.4727 7.35742 15.8828 7.875 15.8828Z"
        fill="#222222" />
</svg>