<svg width="31" height="30" viewBox="0 0 31 30" fill="none" xmlns="http://www.w3.org/2000/svg">
<path d="M24.4693 13.5266L20.3443 9.40161L19.1668 10.5833L22.7502 14.1666H11.0143V15.8333H22.7502L19.1668 19.4166L20.3452 20.5949L24.4702 16.4699C24.6637 16.2765 24.8172 16.0468 24.9219 15.794C25.0266 15.5412 25.0806 15.2702 25.0806 14.9966C25.0806 14.723 25.0266 14.452 24.9219 14.1992C24.8172 13.9464 24.6637 13.7167 24.4702 13.5233L24.4693 13.5266Z" fill="#222222"/>
<path d="M14.2301 22.5C14.2301 22.721 14.1423 22.933 13.986 23.0893C13.8297 23.2455 13.6178 23.3333 13.3968 23.3333H8.00008C7.77907 23.3333 7.5671 23.2455 7.41082 23.0893C7.25454 22.933 7.16674 22.721 7.16674 22.5V7.5C7.16674 7.27899 7.25454 7.06702 7.41082 6.91074C7.5671 6.75446 7.77907 6.66667 8.00008 6.66667H13.3968C13.6178 6.66667 13.8297 6.75446 13.986 6.91074C14.1423 7.06702 14.2301 7.27899 14.2301 7.5V11.9442H15.8968V7.5C15.8968 6.83696 15.6334 6.20107 15.1645 5.73223C14.6957 5.26339 14.0598 5 13.3968 5H8.00008C7.33704 5 6.70115 5.26339 6.23231 5.73223C5.76347 6.20107 5.50008 6.83696 5.50008 7.5V22.5C5.50008 23.163 5.76347 23.7989 6.23231 24.2678C6.70115 24.7366 7.33704 25 8.00008 25H13.3968C14.0598 25 14.6957 24.7366 15.1645 24.2678C15.6334 23.7989 15.8968 23.163 15.8968 22.5V18.0558H14.2301V22.5Z" fill="#222222"/>
</svg>
