<svg xmlns="http://www.w3.org/2000/svg" width="22" height="17" viewBox="0 0 25 22"
id="love"><path fill="black" d="M12,22.5c-0.2,0-0.4-0.1-0.6-0.2L9.9,21c-3.6-3.2-7.3-6.6-8.4-10.1c-1.3-4.1,0.4-8,4-9.2 c2.3-0.8,4.7,0,6.5,1.8c1.8-1.9,4.2-2.6,6.5-1.8c3.6,1.2,5.3,5.1,4,9.2c-1.1,3.5-4.8,6.9-8.4,10.1l-1.5,1.3 C12.4,22.5,12.2,22.5,12,22.5z M7.4,3.2C7,3.2,6.5,3.3,6.1,3.4c-2.6,0.9-3.8,3.8-2.9,6.9c1,3,4.5,6.2,7.9,9.3l0.8,0.8l0.8-0.8 c3.4-3.1,7-6.3,7.9-9.3c1-3.1-0.2-6.1-2.9-6.9c-2.8-0.9-4.7,1.4-5.2,2.1c-0.2,0.2-0.4,0.4-0.7,0.4l0,0c-0.3,0-0.6-0.1-0.7-0.4 C10.8,4.9,9.4,3.2,7.4,3.2z"></path></svg>