<svg width="30" height="30" viewBox="0 0 30 30" fill="none" xmlns="http://www.w3.org/2000/svg">
<path d="M7.20312 20.155C7.20312 19.2761 8.09082 18.4851 8.85547 17.7029C9.43555 17.0964 9.59375 15.8484 9.66406 14.8376C9.72559 11.3748 10.6221 9.14233 12.96 8.29858C13.25 7.14722 14.1992 6.24194 15.4912 6.24194C16.792 6.24194 17.7324 7.14722 18.0312 8.29858C20.3691 9.14233 21.2656 11.3748 21.3271 14.8376C21.3975 15.8484 21.5557 17.0964 22.1357 17.7029C22.8916 18.4851 23.7881 19.2761 23.7881 20.155C23.7881 20.7966 23.2871 21.2185 22.4609 21.2185H18.752C18.6816 22.9236 17.3545 24.4001 15.4912 24.4001C13.6367 24.4001 12.3096 22.9148 12.2393 21.2185H8.53027C7.69531 21.2185 7.20312 20.7966 7.20312 20.155ZM8.9082 19.8914H22.0742V19.7859C21.916 19.531 21.3975 19.0125 20.9316 18.5027C20.3076 17.7996 20.0088 16.6658 19.9297 14.9519C19.8594 11.1111 18.7168 9.8894 17.2051 9.47632C16.9854 9.42358 16.8711 9.31812 16.8623 9.0896C16.8271 8.17554 16.3086 7.53394 15.4912 7.53394C14.6826 7.53394 14.1553 8.17554 14.1289 9.0896C14.1201 9.31812 13.9971 9.42358 13.7773 9.47632C12.2744 9.8894 11.1318 11.1111 11.0615 14.9519C10.9824 16.6658 10.6836 17.7996 10.0508 18.5027C9.59375 19.0125 9.06641 19.531 8.9082 19.7859V19.8914ZM13.6104 21.2185C13.6719 22.4138 14.4365 23.1609 15.4912 23.1609C16.5547 23.1609 17.3105 22.4138 17.3809 21.2185H13.6104Z" fill="#222222"/>
</svg>
