<svg width="15" height="20" viewBox="0 0 15 20" fill="none" xmlns="http://www.w3.org/2000/svg">
<path d="M7.5 10C8.48891 10 9.45561 9.70676 10.2779 9.15735C11.1001 8.60794 11.741 7.82705 12.1194 6.91342C12.4978 5.99979 12.5969 4.99446 12.4039 4.02455C12.211 3.05465 11.7348 2.16373 11.0355 1.46447C10.3363 0.765206 9.44536 0.289002 8.47545 0.0960758C7.50555 -0.0968503 6.50021 0.00216643 5.58658 0.380605C4.67295 0.759043 3.89206 1.39991 3.34265 2.22215C2.79324 3.0444 2.5 4.0111 2.5 5C2.50132 6.32568 3.02853 7.59668 3.96593 8.53407C4.90332 9.47147 6.17432 9.99868 7.5 10ZM7.5 1.66667C8.15927 1.66667 8.80374 1.86217 9.3519 2.22844C9.90006 2.59471 10.3273 3.1153 10.5796 3.72439C10.8319 4.33348 10.8979 5.0037 10.7693 5.6503C10.6407 6.29691 10.3232 6.89085 9.85702 7.35703C9.39085 7.8232 8.7969 8.14067 8.1503 8.26929C7.5037 8.3979 6.83348 8.33189 6.22439 8.0796C5.6153 7.82731 5.09471 7.40007 4.72843 6.8519C4.36216 6.30374 4.16667 5.65927 4.16667 5C4.16667 4.11595 4.51786 3.2681 5.14298 2.64298C5.7681 2.01786 6.61594 1.66667 7.5 1.66667Z" fill="#222222"/>
<path d="M7.5 11.6667C5.51155 11.6689 3.60518 12.4598 2.19914 13.8658C0.79309 15.2719 0.00220571 17.1782 0 19.1667C0 19.3877 0.0877973 19.5997 0.244078 19.7559C0.400358 19.9122 0.61232 20 0.833333 20C1.05435 20 1.26631 19.9122 1.42259 19.7559C1.57887 19.5997 1.66667 19.3877 1.66667 19.1667C1.66667 17.6196 2.28125 16.1359 3.37521 15.0419C4.46917 13.9479 5.9529 13.3334 7.5 13.3334C9.0471 13.3334 10.5308 13.9479 11.6248 15.0419C12.7188 16.1359 13.3333 17.6196 13.3333 19.1667C13.3333 19.3877 13.4211 19.5997 13.5774 19.7559C13.7337 19.9122 13.9457 20 14.1667 20C14.3877 20 14.5996 19.9122 14.7559 19.7559C14.9122 19.5997 15 19.3877 15 19.1667C14.9978 17.1782 14.2069 15.2719 12.8009 13.8658C11.3948 12.4598 9.48845 11.6689 7.5 11.6667Z" fill="#222222"/>
</svg>
