<svg width="30" height="30" viewBox="0 0 30 30" fill="none" xmlns="http://www.w3.org/2000/svg">
<path d="M11.251 23.6616H19.7397C21.1035 23.6616 21.8271 22.9194 21.8271 21.4536V15.0615C21.8271 13.7812 21.2705 13.0483 20.2036 12.8906V10.6455C20.2036 7.15723 17.9214 5.46875 15.4907 5.46875C13.0693 5.46875 10.7871 7.15723 10.7871 10.6455V12.8906C9.72949 13.0483 9.16357 13.772 9.16357 15.0615V21.4536C9.16357 22.9194 9.88721 23.6616 11.251 23.6616ZM12.2622 10.4507C12.2622 8.10352 13.7559 6.86963 15.4907 6.86963C17.2256 6.86963 18.7378 8.10352 18.7378 10.4507V12.8628H12.2622V10.4507ZM11.2974 22.2607C10.8984 22.2607 10.6665 22.0103 10.6665 21.5557V14.9595C10.6665 14.5049 10.8984 14.2637 11.2974 14.2637H19.6934C20.1016 14.2637 20.3242 14.5049 20.3242 14.9595V21.5557C20.3242 22.0103 20.1016 22.2607 19.6934 22.2607H11.2974Z" fill="#999999"/>
</svg>
