<svg width="24" height="24" viewBox="0 0 24 24" fill="none" xmlns="http://www.w3.org/2000/svg">
<path d="M19.813 18.8711L15.8369 14.8951C16.9205 13.5699 17.4532 11.8789 17.3249 10.172C17.1967 8.46504 16.4173 6.87268 15.1479 5.72428C13.8785 4.57589 12.2163 3.95932 10.5051 4.0021C8.79385 4.04489 7.16453 4.74376 5.95413 5.95416C4.74374 7.16456 4.04487 8.79388 4.00208 10.5051C3.95929 12.2163 4.57587 13.8785 5.72426 15.1479C6.87266 16.4173 8.46502 17.1967 10.172 17.325C11.8789 17.4532 13.5699 16.9205 14.895 15.837L18.8711 19.813C18.9967 19.9344 19.165 20.0015 19.3397 20C19.5143 19.9985 19.6814 19.9284 19.8049 19.8049C19.9284 19.6814 19.9985 19.5143 20 19.3397C20.0015 19.165 19.9343 18.9968 19.813 18.8711ZM10.6825 16.0115C9.62854 16.0115 8.59824 15.6989 7.7219 15.1134C6.84556 14.5278 6.16253 13.6956 5.75919 12.7218C5.35586 11.7481 5.25033 10.6766 5.45595 9.6429C5.66157 8.60919 6.1691 7.65966 6.91437 6.91439C7.65963 6.16912 8.60916 5.66159 9.64288 5.45597C10.6766 5.25035 11.7481 5.35588 12.7218 5.75922C13.6955 6.16255 14.5278 6.84558 15.1134 7.72192C15.6989 8.59826 16.0115 9.62856 16.0115 10.6825C16.0099 12.0954 15.4479 13.4499 14.4489 14.4489C13.4499 15.4479 12.0953 16.0099 10.6825 16.0115Z" fill="#999999"/>
</svg>
