<svg width="30" height="30" viewBox="0 0 30 30" fill="none" xmlns="http://www.w3.org/2000/svg">
<rect width="390" height="844" transform="translate(-144 -338)" fill="none"/>
<path fill-rule="evenodd" clip-rule="evenodd" d="M15.5 24C20.4706 24 24.5 19.9706 24.5 15C24.5 10.0294 20.4706 6 15.5 6C10.5294 6 6.5 10.0294 6.5 15C6.5 19.9706 10.5294 24 15.5 24ZM13.4371 18.1845C13.7178 18.4657 14.099 18.6237 14.4964 18.6235C14.8938 18.6237 15.2749 18.4657 15.5557 18.1845L20.2345 13.5067C20.5791 13.162 20.5791 12.6032 20.2345 12.2585C19.8898 11.9138 19.331 11.9138 18.9863 12.2585L14.4964 16.7485L13.0066 15.2585C12.6619 14.9138 12.1032 14.9138 11.7584 15.2585C11.4138 15.6032 11.4138 16.162 11.7584 16.5067L13.4371 18.1845Z" fill="#0099FF"/>
<defs>
<clipPath id="clip0_893_3542">
<rect width="390" height="844" fill="none" transform="translate(-144 -338)"/>
</clipPath>
</defs>
</svg>
