<svg width="30" height="30" viewBox="0 0 30 30" fill="none" xmlns="http://www.w3.org/2000/svg">
    <path
        d="M15.5 15C16.4889 15 17.4556 14.7068 18.2779 14.1573C19.1001 13.6079 19.741 12.827 20.1194 11.9134C20.4978 10.9998 20.5969 9.99446 20.4039 9.02455C20.211 8.05465 19.7348 7.16373 19.0355 6.46447C18.3363 5.76521 17.4454 5.289 16.4755 5.09608C15.5055 4.90315 14.5002 5.00217 13.5866 5.3806C12.673 5.75904 11.8921 6.39991 11.3427 7.22215C10.7932 8.0444 10.5 9.0111 10.5 10C10.5013 11.3257 11.0285 12.5967 11.9659 13.5341C12.9033 14.4715 14.1743 14.9987 15.5 15ZM15.5 6.66667C16.1593 6.66667 16.8037 6.86217 17.3519 7.22844C17.9001 7.59471 18.3273 8.1153 18.5796 8.72439C18.8319 9.33348 18.8979 10.0037 18.7693 10.6503C18.6407 11.2969 18.3232 11.8909 17.857 12.357C17.3908 12.8232 16.7969 13.1407 16.1503 13.2693C15.5037 13.3979 14.8335 13.3319 14.2244 13.0796C13.6153 12.8273 13.0947 12.4001 12.7284 11.8519C12.3622 11.3037 12.1667 10.6593 12.1667 10C12.1667 9.11595 12.5179 8.2681 13.143 7.64298C13.7681 7.01786 14.6159 6.66667 15.5 6.66667Z"
        fill="#999999" />
    <path
        d="M15.5 16.6666C13.5116 16.6688 11.6052 17.4597 10.1991 18.8658C8.79309 20.2718 8.00221 22.1782 8 24.1666C8 24.3876 8.0878 24.5996 8.24408 24.7559C8.40036 24.9122 8.61232 25 8.83333 25C9.05435 25 9.26631 24.9122 9.42259 24.7559C9.57887 24.5996 9.66667 24.3876 9.66667 24.1666C9.66667 22.6195 10.2812 21.1358 11.3752 20.0418C12.4692 18.9479 13.9529 18.3333 15.5 18.3333C17.0471 18.3333 18.5308 18.9479 19.6248 20.0418C20.7188 21.1358 21.3333 22.6195 21.3333 24.1666C21.3333 24.3876 21.4211 24.5996 21.5774 24.7559C21.7337 24.9122 21.9457 25 22.1667 25C22.3877 25 22.5996 24.9122 22.7559 24.7559C22.9122 24.5996 23 24.3876 23 24.1666C22.9978 22.1782 22.2069 20.2718 20.8009 18.8658C19.3948 17.4597 17.4884 16.6688 15.5 16.6666Z"
        fill="#999999" />
</svg>